#!OML:ASF H:\BabyWalks\Project 1\Capture day 1\Session 1\baby.ASF
:FULLY-SPECIFIED
:DEGREES
516
root -2.8562 10.0845 1.35158 -181.674 63.6 -220.047
lowerback 44.2665 -4.80552 1.13288
upperback 8.75842 -3.27882 1.33755
thorax -10.8347 -0.784971 2.1956
lowerneck -2.40619 -3.20855 9.24647
upperneck -23.4485 -3.76497 -1.93337
head -7.02506 -2.08773 -2.03471
rclavicle 1.145e-013 9.10434e-014
rhumerus 27.1877 1.61697 -72.4071
rradius 31.553
rwrist 37.0991
rhand -65.941 -57.3372
rfingers 7.12502
rthumb -37.7873 -83.194
lclavicle 1.145e-013 9.10434e-014
lhumerus 50.6186 -30.3963 29.57
lradius 56.3734
lwrist -12.6823
lhand -35.1284 2.38991
lfingers 7.12502
lthumb -8.26871 32.2081
rfemur -62.7244 -37.859 25.5893
rtibia 135.338
rfoot -35.2203 11.7955
rtoes -27.8517
lfemur -76.6683 33.5913 -10.2988
ltibia 113.905
lfoot -12.3415 -70.1117
ltoes 0.150926
517
root -2.76531 10.0681 1.35696 -181.823 63.3306 -220.088
lowerback 44.3844 -5.09095 1.27924
upperback 8.62582 -3.55525 1.3689
thorax -11.0168 -0.908519 2.28579
lowerneck -2.37973 -3.15606 9.12212
upperneck -23.4565 -3.69572 -1.94701
head -7.02414 -2.04218 -2.02241
rclavicle -1.43125e-014 -2.70347e-014
rhumerus 26.7055 2.0173 -72.8928
rradius 31.5745
rwrist 37.5071
rhand -66.149 -58.4223
rfingers 7.12502
rthumb -37.9837 -84.2259
lclavicle -1.43125e-014 -2.70347e-014
lhumerus 50.8968 -29.4684 30.0802
lradius 55.7574
lwrist -12.8263
lhand -34.9082 2.292
lfingers 7.12502
lthumb -8.05613 32.1185
rfemur -61.7682 -38.0631 25.049
rtibia 135.139
rfoot -35.0518 12.3487
rtoes -27.3645
lfemur -75.93 32.9058 -9.59752
ltibia 113.724
lfoot -12.1736 -70.0893
ltoes -0.49151
518
root -2.67579 10.0532 1.36163 -181.972 63.1414 -220.165
lowerback 44.4975 -5.33288 1.37509
upperback 8.49335 -3.80381 1.40158
thorax -11.1962 -1.01984 2.3921
lowerneck -2.35525 -3.10057 8.99143
upperneck -23.4629 -3.62157 -1.95291
head -7.0219 -1.99437 -2.00677
rclavicle 2.06736e-014 -8.34896e-014
rhumerus 26.2445 2.41476 -73.376
rradius 31.5924
rwrist 37.9187
rhand -66.3547 -59.4903
rfingers 7.12502
rthumb -38.1779 -85.2409
lclavicle 2.06736e-014 -8.34896e-014
lhumerus 51.1811 -28.5265 30.6443
lradius 55.0516
lwrist -12.9432
lhand -34.6694 2.26411
lfingers 7.12502
lthumb -7.82569 32.0993
rfemur -60.8717 -38.141 24.5435
rtibia 134.918
rfoot -34.8828 12.9139
rtoes -26.3141
lfemur -75.2346 32.2788 -8.93664
ltibia 113.554
lfoot -11.9874 -70.0313
ltoes -1.13806
519
root -2.58805 10.039 1.36671 -182.105 63.0616 -220.275
lowerback 44.5897 -5.5075 1.39646
upperback 8.36141 -4.00862 1.43992
thorax -11.3664 -1.11233 2.52349
lowerneck -2.33247 -3.04107 8.85046
upperneck -23.4614 -3.54049 -1.946
head -7.01602 -1.94344 -1.98555
rclavicle 3.18055e-015 -3.97569e-015
rhumerus 25.8024 2.81426 -73.8545
rradius 31.6088
rwrist 38.3215
rhand -66.5598 -60.5464
rfingers 7.12502
rthumb -38.3715 -86.2436
lclavicle 3.18055e-015 -3.97569e-015
lhumerus 51.4653 -27.5725 31.2569
lradius 54.2584
lwrist -13.0343
lhand -34.3896 2.29484
lfingers 7.12502
lthumb -7.55559 32.1399
rfemur -60.0881 -38.037 24.1222
rtibia 134.69
rfoot -34.7116 13.4282
rtoes -24.8484
lfemur -74.5955 31.7551 -8.31039
ltibia 113.406
lfoot -11.8401 -69.9322
ltoes -1.83088
520
root -2.50165 10.0258 1.37283 -182.201 63.1087 -220.393
lowerback 44.661 -5.60399 1.33947
upperback 8.23314 -4.15801 1.48829
thorax -11.5235 -1.18085 2.68085
lowerneck -2.31475 -2.97917 8.70108
upperneck -23.4498 -3.4556 -1.92871
head -7.00559 -1.89091 -1.95969
rclavicle -4.45278e-014 9.02482e-014
rhumerus 25.38 3.19967 -74.3395
rradius 31.6228
rwrist 38.7363
rhand -66.7623 -61.5793
rfingers 7.12502
rthumb -38.5626 -87.2232
lclavicle -4.45278e-014 9.02482e-014
lhumerus 51.7558 -26.6105 31.9037
lradius 53.3767
lwrist -13.0962
lhand -34.0638 2.37021
lfingers 7.12502
lthumb -7.24115 32.2263
rfemur -59.4274 -37.6961 23.8131
rtibia 134.456
rfoot -34.5251 13.8681
rtoes -23.3482
lfemur -73.9966 31.3577 -7.69384
ltibia 113.278
lfoot -11.7196 -69.795
ltoes -2.57381
